<mxfile host="Electron" agent="Mozilla/5.0 (X11; Linux x86_64) AppleWebKit/537.36 (KHTML, like Gecko) draw.io/26.2.2 Chrome/134.0.6998.178 Electron/35.1.2 Safari/537.36" version="26.2.2">
  <diagram name="Seite-1" id="nTANKQSt57wxLCOj4nYc">
    <mxGraphModel dx="1110" dy="1812" grid="1" gridSize="10" guides="1" tooltips="1" connect="1" arrows="1" fold="1" page="1" pageScale="1" pageWidth="827" pageHeight="1169" math="0" shadow="0">
      <root>
        <mxCell id="0" />
        <mxCell id="1" parent="0" />
        <mxCell id="VzRTlwq7poQWscKFuq8p-21" value="" style="rounded=1;whiteSpace=wrap;html=1;dashed=1;arcSize=4;" vertex="1" parent="1">
          <mxGeometry x="40" y="110" width="600" height="200" as="geometry" />
        </mxCell>
        <mxCell id="2HSHLw8uNrrBEVIlZeN6-11" value="" style="rounded=1;whiteSpace=wrap;html=1;dashed=1;arcSize=4;align=left;" parent="1" vertex="1">
          <mxGeometry x="40" y="310" width="600" height="290" as="geometry" />
        </mxCell>
        <mxCell id="2HSHLw8uNrrBEVIlZeN6-12" value="" style="rounded=1;whiteSpace=wrap;html=1;dashed=1;arcSize=3;verticalAlign=top;align=left;" parent="1" vertex="1">
          <mxGeometry x="330" y="350" width="310" height="220" as="geometry" />
        </mxCell>
        <mxCell id="2HSHLw8uNrrBEVIlZeN6-13" value="Internet" style="ellipse;shape=cloud;whiteSpace=wrap;html=1;" parent="1" vertex="1">
          <mxGeometry x="390" y="-20" width="120" height="80" as="geometry" />
        </mxCell>
        <mxCell id="VzRTlwq7poQWscKFuq8p-13" style="edgeStyle=orthogonalEdgeStyle;rounded=0;orthogonalLoop=1;jettySize=auto;html=1;exitX=0.5;exitY=0;exitDx=0;exitDy=0;" edge="1" parent="1" source="VzRTlwq7poQWscKFuq8p-1" target="VzRTlwq7poQWscKFuq8p-11">
          <mxGeometry relative="1" as="geometry" />
        </mxCell>
        <mxCell id="VzRTlwq7poQWscKFuq8p-18" style="edgeStyle=orthogonalEdgeStyle;rounded=0;orthogonalLoop=1;jettySize=auto;html=1;exitX=1;exitY=0.5;exitDx=0;exitDy=0;entryX=0.5;entryY=1;entryDx=0;entryDy=0;" edge="1" parent="1" source="VzRTlwq7poQWscKFuq8p-1" target="VzRTlwq7poQWscKFuq8p-14">
          <mxGeometry relative="1" as="geometry" />
        </mxCell>
        <mxCell id="VzRTlwq7poQWscKFuq8p-1" value="monitoring" style="rounded=0;whiteSpace=wrap;html=1;" vertex="1" parent="1">
          <mxGeometry x="60" y="545" width="100" height="40" as="geometry" />
        </mxCell>
        <mxCell id="VzRTlwq7poQWscKFuq8p-3" value="api-gateway" style="aspect=fixed;sketch=0;html=1;dashed=0;whitespace=wrap;verticalLabelPosition=bottom;verticalAlign=top;fillColor=#2875E2;strokeColor=#ffffff;points=[[0.005,0.63,0],[0.1,0.2,0],[0.9,0.2,0],[0.5,0,0],[0.995,0.63,0],[0.72,0.99,0],[0.5,1,0],[0.28,0.99,0]];shape=mxgraph.kubernetes.icon2;kubernetesLabel=1;prIcon=ing" vertex="1" parent="1">
          <mxGeometry x="435" y="130" width="50" height="48" as="geometry" />
        </mxCell>
        <mxCell id="VzRTlwq7poQWscKFuq8p-8" value="" style="aspect=fixed;sketch=0;html=1;dashed=0;whitespace=wrap;verticalLabelPosition=bottom;verticalAlign=top;fillColor=#2875E2;strokeColor=#ffffff;points=[[0.005,0.63,0],[0.1,0.2,0],[0.9,0.2,0],[0.5,0,0],[0.995,0.63,0],[0.72,0.99,0],[0.5,1,0],[0.28,0.99,0]];shape=mxgraph.kubernetes.icon2;kubernetesLabel=1;prIcon=api" vertex="1" parent="1">
          <mxGeometry x="340" y="390" width="50" height="48" as="geometry" />
        </mxCell>
        <mxCell id="VzRTlwq7poQWscKFuq8p-11" value="DBaaS" style="shape=cylinder3;whiteSpace=wrap;html=1;boundedLbl=1;backgroundOutline=1;size=15;" vertex="1" parent="1">
          <mxGeometry x="60" y="430" width="60" height="80" as="geometry" />
        </mxCell>
        <mxCell id="VzRTlwq7poQWscKFuq8p-16" value="" style="group" vertex="1" connectable="0" parent="1">
          <mxGeometry x="414" y="430" width="216" height="100" as="geometry" />
        </mxCell>
        <mxCell id="VzRTlwq7poQWscKFuq8p-14" value="microservice (flask-app)" style="rounded=1;whiteSpace=wrap;html=1;dashed=1;arcSize=3;verticalAlign=top;align=left;" vertex="1" parent="VzRTlwq7poQWscKFuq8p-16">
          <mxGeometry width="216" height="100" as="geometry" />
        </mxCell>
        <mxCell id="VzRTlwq7poQWscKFuq8p-4" value="" style="aspect=fixed;sketch=0;html=1;dashed=0;whitespace=wrap;verticalLabelPosition=bottom;verticalAlign=top;fillColor=#2875E2;strokeColor=#ffffff;points=[[0.005,0.63,0],[0.1,0.2,0],[0.9,0.2,0],[0.5,0,0],[0.995,0.63,0],[0.72,0.99,0],[0.5,1,0],[0.28,0.99,0]];shape=mxgraph.kubernetes.icon2;kubernetesLabel=1;prIcon=svc" vertex="1" parent="VzRTlwq7poQWscKFuq8p-16">
          <mxGeometry x="56.00142857142857" y="40" width="50" height="48" as="geometry" />
        </mxCell>
        <mxCell id="VzRTlwq7poQWscKFuq8p-5" value="" style="aspect=fixed;sketch=0;html=1;dashed=0;whitespace=wrap;verticalLabelPosition=bottom;verticalAlign=top;fillColor=#2875E2;strokeColor=#ffffff;points=[[0.005,0.63,0],[0.1,0.2,0],[0.9,0.2,0],[0.5,0,0],[0.995,0.63,0],[0.72,0.99,0],[0.5,1,0],[0.28,0.99,0]];shape=mxgraph.kubernetes.icon2;kubernetesLabel=1;prIcon=rs" vertex="1" parent="VzRTlwq7poQWscKFuq8p-16">
          <mxGeometry x="5.998571428571429" y="40" width="50" height="48" as="geometry" />
        </mxCell>
        <mxCell id="VzRTlwq7poQWscKFuq8p-49" value="" style="aspect=fixed;sketch=0;html=1;dashed=0;whitespace=wrap;verticalLabelPosition=bottom;verticalAlign=top;fillColor=#2875E2;strokeColor=#ffffff;points=[[0.005,0.63,0],[0.1,0.2,0],[0.9,0.2,0],[0.5,0,0],[0.995,0.63,0],[0.72,0.99,0],[0.5,1,0],[0.28,0.99,0]];shape=mxgraph.kubernetes.icon2;kubernetesLabel=1;prIcon=secret" vertex="1" parent="VzRTlwq7poQWscKFuq8p-16">
          <mxGeometry x="106" y="40" width="50" height="48" as="geometry" />
        </mxCell>
        <mxCell id="VzRTlwq7poQWscKFuq8p-50" value="" style="aspect=fixed;sketch=0;html=1;dashed=0;whitespace=wrap;verticalLabelPosition=bottom;verticalAlign=top;fillColor=#2875E2;strokeColor=#ffffff;points=[[0.005,0.63,0],[0.1,0.2,0],[0.9,0.2,0],[0.5,0,0],[0.995,0.63,0],[0.72,0.99,0],[0.5,1,0],[0.28,0.99,0]];shape=mxgraph.kubernetes.icon2;kubernetesLabel=1;prIcon=cm" vertex="1" parent="VzRTlwq7poQWscKFuq8p-16">
          <mxGeometry x="156" y="40" width="50" height="48" as="geometry" />
        </mxCell>
        <mxCell id="VzRTlwq7poQWscKFuq8p-19" style="edgeStyle=orthogonalEdgeStyle;rounded=0;orthogonalLoop=1;jettySize=auto;html=1;exitX=0;exitY=0.5;exitDx=0;exitDy=0;entryX=1;entryY=0;entryDx=0;entryDy=52.5;entryPerimeter=0;" edge="1" parent="1" source="VzRTlwq7poQWscKFuq8p-14" target="VzRTlwq7poQWscKFuq8p-11">
          <mxGeometry relative="1" as="geometry" />
        </mxCell>
        <mxCell id="VzRTlwq7poQWscKFuq8p-20" style="edgeStyle=orthogonalEdgeStyle;rounded=0;orthogonalLoop=1;jettySize=auto;html=1;exitX=0.5;exitY=0;exitDx=0;exitDy=0;exitPerimeter=0;entryX=0.55;entryY=0.95;entryDx=0;entryDy=0;entryPerimeter=0;" edge="1" parent="1" source="VzRTlwq7poQWscKFuq8p-3" target="2HSHLw8uNrrBEVIlZeN6-13">
          <mxGeometry relative="1" as="geometry" />
        </mxCell>
        <mxCell id="VzRTlwq7poQWscKFuq8p-22" value="" style="group" vertex="1" connectable="0" parent="1">
          <mxGeometry x="390" y="230" width="140" height="70" as="geometry" />
        </mxCell>
        <mxCell id="VzRTlwq7poQWscKFuq8p-23" value="edge-api microservice" style="rounded=1;whiteSpace=wrap;html=1;dashed=1;arcSize=3;verticalAlign=top;align=left;" vertex="1" parent="VzRTlwq7poQWscKFuq8p-22">
          <mxGeometry width="140" height="70" as="geometry" />
        </mxCell>
        <mxCell id="VzRTlwq7poQWscKFuq8p-24" value="" style="aspect=fixed;sketch=0;html=1;dashed=0;whitespace=wrap;verticalLabelPosition=bottom;verticalAlign=top;fillColor=#2875E2;strokeColor=#ffffff;points=[[0.005,0.63,0],[0.1,0.2,0],[0.9,0.2,0],[0.5,0,0],[0.995,0.63,0],[0.72,0.99,0],[0.5,1,0],[0.28,0.99,0]];shape=mxgraph.kubernetes.icon2;kubernetesLabel=1;prIcon=svc" vertex="1" parent="VzRTlwq7poQWscKFuq8p-22">
          <mxGeometry x="45" y="28" width="35" height="33.599999999999994" as="geometry" />
        </mxCell>
        <mxCell id="VzRTlwq7poQWscKFuq8p-25" value="" style="aspect=fixed;sketch=0;html=1;dashed=0;whitespace=wrap;verticalLabelPosition=bottom;verticalAlign=top;fillColor=#2875E2;strokeColor=#ffffff;points=[[0.005,0.63,0],[0.1,0.2,0],[0.9,0.2,0],[0.5,0,0],[0.995,0.63,0],[0.72,0.99,0],[0.5,1,0],[0.28,0.99,0]];shape=mxgraph.kubernetes.icon2;kubernetesLabel=1;prIcon=rs" vertex="1" parent="VzRTlwq7poQWscKFuq8p-22">
          <mxGeometry x="10" y="28" width="35" height="33.599999999999994" as="geometry" />
        </mxCell>
        <mxCell id="VzRTlwq7poQWscKFuq8p-27" style="edgeStyle=orthogonalEdgeStyle;rounded=0;orthogonalLoop=1;jettySize=auto;html=1;exitX=0.5;exitY=0;exitDx=0;exitDy=0;" edge="1" parent="1" source="VzRTlwq7poQWscKFuq8p-23" target="VzRTlwq7poQWscKFuq8p-3">
          <mxGeometry relative="1" as="geometry" />
        </mxCell>
        <mxCell id="VzRTlwq7poQWscKFuq8p-28" style="edgeStyle=orthogonalEdgeStyle;rounded=0;orthogonalLoop=1;jettySize=auto;html=1;exitX=0.5;exitY=0;exitDx=0;exitDy=0;entryX=0.5;entryY=1;entryDx=0;entryDy=0;" edge="1" parent="1" source="VzRTlwq7poQWscKFuq8p-14" target="VzRTlwq7poQWscKFuq8p-23">
          <mxGeometry relative="1" as="geometry" />
        </mxCell>
        <mxCell id="VzRTlwq7poQWscKFuq8p-30" value="service boundary 10.10.0.1/16" style="text;html=1;align=left;verticalAlign=middle;whiteSpace=wrap;rounded=0;" vertex="1" parent="1">
          <mxGeometry x="50" y="320" width="170" height="30" as="geometry" />
        </mxCell>
        <mxCell id="VzRTlwq7poQWscKFuq8p-31" value="cluster boundary 10.100.0.1/16" style="text;html=1;align=left;verticalAlign=middle;whiteSpace=wrap;rounded=0;" vertex="1" parent="1">
          <mxGeometry x="340" y="360" width="180" height="30" as="geometry" />
        </mxCell>
        <mxCell id="VzRTlwq7poQWscKFuq8p-32" value="gateway boundary (class B)" style="text;html=1;align=left;verticalAlign=middle;whiteSpace=wrap;rounded=0;" vertex="1" parent="1">
          <mxGeometry x="50" y="120" width="200" height="30" as="geometry" />
        </mxCell>
        <mxCell id="VzRTlwq7poQWscKFuq8p-34" value="K8s Worker Node" style="swimlane;whiteSpace=wrap;html=1;align=left;" vertex="1" parent="1">
          <mxGeometry x="710" y="240" width="210" height="370" as="geometry" />
        </mxCell>
        <mxCell id="VzRTlwq7poQWscKFuq8p-36" value="OpenSUSE Host OS" style="rounded=0;whiteSpace=wrap;html=1;" vertex="1" parent="VzRTlwq7poQWscKFuq8p-34">
          <mxGeometry x="10" y="325" width="190" height="30" as="geometry" />
        </mxCell>
        <mxCell id="VzRTlwq7poQWscKFuq8p-43" value="Docker Container Runtime" style="rounded=0;whiteSpace=wrap;html=1;" vertex="1" parent="VzRTlwq7poQWscKFuq8p-34">
          <mxGeometry x="10" y="290" width="190" height="35" as="geometry" />
        </mxCell>
        <mxCell id="VzRTlwq7poQWscKFuq8p-56" value="" style="group" vertex="1" connectable="0" parent="VzRTlwq7poQWscKFuq8p-34">
          <mxGeometry x="10" y="120" width="120" height="60" as="geometry" />
        </mxCell>
        <mxCell id="VzRTlwq7poQWscKFuq8p-55" value="" style="rounded=0;whiteSpace=wrap;html=1;" vertex="1" parent="VzRTlwq7poQWscKFuq8p-56">
          <mxGeometry width="120" height="60" as="geometry" />
        </mxCell>
        <mxCell id="VzRTlwq7poQWscKFuq8p-46" value="" style="aspect=fixed;sketch=0;html=1;dashed=0;whitespace=wrap;verticalLabelPosition=bottom;verticalAlign=top;fillColor=#2875E2;strokeColor=#ffffff;points=[[0.005,0.63,0],[0.1,0.2,0],[0.9,0.2,0],[0.5,0,0],[0.995,0.63,0],[0.72,0.99,0],[0.5,1,0],[0.28,0.99,0]];shape=mxgraph.kubernetes.icon2;kubernetesLabel=1;prIcon=kubelet" vertex="1" parent="VzRTlwq7poQWscKFuq8p-56">
          <mxGeometry x="10" y="6" width="50" height="48" as="geometry" />
        </mxCell>
        <mxCell id="VzRTlwq7poQWscKFuq8p-48" value="" style="aspect=fixed;sketch=0;html=1;dashed=0;whitespace=wrap;verticalLabelPosition=bottom;verticalAlign=top;fillColor=#2875E2;strokeColor=#ffffff;points=[[0.005,0.63,0],[0.1,0.2,0],[0.9,0.2,0],[0.5,0,0],[0.995,0.63,0],[0.72,0.99,0],[0.5,1,0],[0.28,0.99,0]];shape=mxgraph.kubernetes.icon2;kubernetesLabel=1;prIcon=k_proxy" vertex="1" parent="VzRTlwq7poQWscKFuq8p-56">
          <mxGeometry x="70" y="6" width="50" height="48" as="geometry" />
        </mxCell>
        <mxCell id="VzRTlwq7poQWscKFuq8p-59" value="" style="group" vertex="1" connectable="0" parent="VzRTlwq7poQWscKFuq8p-34">
          <mxGeometry x="10" y="230" width="190" height="60" as="geometry" />
        </mxCell>
        <mxCell id="VzRTlwq7poQWscKFuq8p-58" value="" style="rounded=0;whiteSpace=wrap;html=1;" vertex="1" parent="VzRTlwq7poQWscKFuq8p-59">
          <mxGeometry width="190" height="60" as="geometry" />
        </mxCell>
        <mxCell id="VzRTlwq7poQWscKFuq8p-47" value="" style="aspect=fixed;sketch=0;html=1;dashed=0;whitespace=wrap;verticalLabelPosition=bottom;verticalAlign=top;fillColor=#2875E2;strokeColor=#ffffff;points=[[0.005,0.63,0],[0.1,0.2,0],[0.9,0.2,0],[0.5,0,0],[0.995,0.63,0],[0.72,0.99,0],[0.5,1,0],[0.28,0.99,0]];shape=mxgraph.kubernetes.icon2;kubernetesLabel=1;prIcon=pod" vertex="1" parent="VzRTlwq7poQWscKFuq8p-59">
          <mxGeometry x="30" y="6" width="50" height="48" as="geometry" />
        </mxCell>
        <mxCell id="VzRTlwq7poQWscKFuq8p-52" value="" style="aspect=fixed;sketch=0;html=1;dashed=0;whitespace=wrap;verticalLabelPosition=bottom;verticalAlign=top;fillColor=#2875E2;strokeColor=#ffffff;points=[[0.005,0.63,0],[0.1,0.2,0],[0.9,0.2,0],[0.5,0,0],[0.995,0.63,0],[0.72,0.99,0],[0.5,1,0],[0.28,0.99,0]];shape=mxgraph.kubernetes.icon2;kubernetesLabel=1;prIcon=pod" vertex="1" parent="VzRTlwq7poQWscKFuq8p-59">
          <mxGeometry x="69.99666666666666" y="6" width="50" height="48" as="geometry" />
        </mxCell>
        <mxCell id="VzRTlwq7poQWscKFuq8p-51" value="" style="aspect=fixed;sketch=0;html=1;dashed=0;whitespace=wrap;verticalLabelPosition=bottom;verticalAlign=top;fillColor=#2875E2;strokeColor=#ffffff;points=[[0.005,0.63,0],[0.1,0.2,0],[0.9,0.2,0],[0.5,0,0],[0.995,0.63,0],[0.72,0.99,0],[0.5,1,0],[0.28,0.99,0]];shape=mxgraph.kubernetes.icon2;kubernetesLabel=1;prIcon=pod" vertex="1" parent="VzRTlwq7poQWscKFuq8p-59">
          <mxGeometry x="107.00333333333333" y="6" width="50" height="48" as="geometry" />
        </mxCell>
        <mxCell id="VzRTlwq7poQWscKFuq8p-62" style="edgeStyle=orthogonalEdgeStyle;rounded=0;orthogonalLoop=1;jettySize=auto;html=1;exitX=0.5;exitY=1;exitDx=0;exitDy=0;entryX=0.316;entryY=0.067;entryDx=0;entryDy=0;entryPerimeter=0;" edge="1" parent="VzRTlwq7poQWscKFuq8p-34" source="VzRTlwq7poQWscKFuq8p-55" target="VzRTlwq7poQWscKFuq8p-58">
          <mxGeometry relative="1" as="geometry" />
        </mxCell>
        <mxCell id="VzRTlwq7poQWscKFuq8p-39" value="K8s cluster" style="text;html=1;align=center;verticalAlign=middle;whiteSpace=wrap;rounded=0;" vertex="1" parent="1">
          <mxGeometry x="330" y="320" width="70" height="30" as="geometry" />
        </mxCell>
        <mxCell id="VzRTlwq7poQWscKFuq8p-63" value="K8s Master Node" style="swimlane;whiteSpace=wrap;html=1;" vertex="1" parent="1">
          <mxGeometry x="930" y="240" width="200" height="370" as="geometry" />
        </mxCell>
        <mxCell id="VzRTlwq7poQWscKFuq8p-66" value="OpenSUSE Host OS" style="rounded=0;whiteSpace=wrap;html=1;" vertex="1" parent="VzRTlwq7poQWscKFuq8p-63">
          <mxGeometry x="5" y="325" width="190" height="30" as="geometry" />
        </mxCell>
        <mxCell id="VzRTlwq7poQWscKFuq8p-45" value="" style="aspect=fixed;sketch=0;html=1;dashed=0;whitespace=wrap;verticalLabelPosition=bottom;verticalAlign=top;fillColor=#2875E2;strokeColor=#ffffff;points=[[0.005,0.63,0],[0.1,0.2,0],[0.9,0.2,0],[0.5,0,0],[0.995,0.63,0],[0.72,0.99,0],[0.5,1,0],[0.28,0.99,0]];shape=mxgraph.kubernetes.icon2;kubernetesLabel=1;prIcon=etcd" vertex="1" parent="VzRTlwq7poQWscKFuq8p-63">
          <mxGeometry x="140" y="250" width="50" height="48" as="geometry" />
        </mxCell>
        <mxCell id="VzRTlwq7poQWscKFuq8p-67" value="" style="aspect=fixed;sketch=0;html=1;dashed=0;whitespace=wrap;verticalLabelPosition=bottom;verticalAlign=top;fillColor=#2875E2;strokeColor=#ffffff;points=[[0.005,0.63,0],[0.1,0.2,0],[0.9,0.2,0],[0.5,0,0],[0.995,0.63,0],[0.72,0.99,0],[0.5,1,0],[0.28,0.99,0]];shape=mxgraph.kubernetes.icon2;kubernetesLabel=1;prIcon=sched" vertex="1" parent="VzRTlwq7poQWscKFuq8p-63">
          <mxGeometry x="10" y="250" width="50" height="48" as="geometry" />
        </mxCell>
        <mxCell id="VzRTlwq7poQWscKFuq8p-68" value="" style="aspect=fixed;sketch=0;html=1;dashed=0;whitespace=wrap;verticalLabelPosition=bottom;verticalAlign=top;fillColor=#2875E2;strokeColor=#ffffff;points=[[0.005,0.63,0],[0.1,0.2,0],[0.9,0.2,0],[0.5,0,0],[0.995,0.63,0],[0.72,0.99,0],[0.5,1,0],[0.28,0.99,0]];shape=mxgraph.kubernetes.icon2;kubernetesLabel=1;prIcon=c_m" vertex="1" parent="VzRTlwq7poQWscKFuq8p-63">
          <mxGeometry x="75" y="250" width="50" height="48" as="geometry" />
        </mxCell>
        <mxCell id="VzRTlwq7poQWscKFuq8p-53" value="" style="aspect=fixed;sketch=0;html=1;dashed=0;whitespace=wrap;verticalLabelPosition=bottom;verticalAlign=top;fillColor=#2875E2;strokeColor=#ffffff;points=[[0.005,0.63,0],[0.1,0.2,0],[0.9,0.2,0],[0.5,0,0],[0.995,0.63,0],[0.72,0.99,0],[0.5,1,0],[0.28,0.99,0]];shape=mxgraph.kubernetes.icon2;kubernetesLabel=1;prIcon=api" vertex="1" parent="VzRTlwq7poQWscKFuq8p-63">
          <mxGeometry x="30" y="30" width="50" height="48" as="geometry" />
        </mxCell>
        <mxCell id="VzRTlwq7poQWscKFuq8p-70" style="edgeStyle=orthogonalEdgeStyle;rounded=0;orthogonalLoop=1;jettySize=auto;html=1;exitX=0.5;exitY=0;exitDx=0;exitDy=0;exitPerimeter=0;entryX=0.5;entryY=1;entryDx=0;entryDy=0;entryPerimeter=0;" edge="1" parent="VzRTlwq7poQWscKFuq8p-63" source="VzRTlwq7poQWscKFuq8p-68" target="VzRTlwq7poQWscKFuq8p-53">
          <mxGeometry relative="1" as="geometry" />
        </mxCell>
        <mxCell id="VzRTlwq7poQWscKFuq8p-71" style="edgeStyle=orthogonalEdgeStyle;rounded=0;orthogonalLoop=1;jettySize=auto;html=1;exitX=0.5;exitY=0;exitDx=0;exitDy=0;exitPerimeter=0;entryX=0.5;entryY=1;entryDx=0;entryDy=0;entryPerimeter=0;" edge="1" parent="VzRTlwq7poQWscKFuq8p-63" source="VzRTlwq7poQWscKFuq8p-67" target="VzRTlwq7poQWscKFuq8p-53">
          <mxGeometry relative="1" as="geometry" />
        </mxCell>
        <mxCell id="VzRTlwq7poQWscKFuq8p-72" style="edgeStyle=orthogonalEdgeStyle;rounded=0;orthogonalLoop=1;jettySize=auto;html=1;exitX=0.995;exitY=0.63;exitDx=0;exitDy=0;exitPerimeter=0;entryX=0.5;entryY=0;entryDx=0;entryDy=0;entryPerimeter=0;" edge="1" parent="VzRTlwq7poQWscKFuq8p-63" source="VzRTlwq7poQWscKFuq8p-53" target="VzRTlwq7poQWscKFuq8p-45">
          <mxGeometry relative="1" as="geometry" />
        </mxCell>
        <mxCell id="VzRTlwq7poQWscKFuq8p-57" style="edgeStyle=orthogonalEdgeStyle;rounded=0;orthogonalLoop=1;jettySize=auto;html=1;exitX=0.5;exitY=0;exitDx=0;exitDy=0;entryX=0.005;entryY=0.63;entryDx=0;entryDy=0;entryPerimeter=0;" edge="1" parent="1" source="VzRTlwq7poQWscKFuq8p-55" target="VzRTlwq7poQWscKFuq8p-53">
          <mxGeometry relative="1" as="geometry" />
        </mxCell>
      </root>
    </mxGraphModel>
  </diagram>
</mxfile>
